<svg xmlns="http://www.w3.org/2000/svg" xmlns:xlink="http://www.w3.org/1999/xlink" width="1920" zoomAndPan="magnify" viewBox="0 0 1440 809.999993" height="1080" preserveAspectRatio="xMidYMid meet" version="1.2"><defs><clipPath id="58aa525614"><path d="M 343 166 L 572 166 L 572 476 L 343 476 Z M 343 166 "/></clipPath><clipPath id="35b3febe14"><path d="M 344.359375 164.980469 L 638.582031 340.792969 L 546.253906 495.308594 L 252.03125 319.496094 Z M 344.359375 164.980469 "/></clipPath><clipPath id="9985390f8d"><path d="M 638.664062 340.839844 L 344.4375 165.027344 L 252.109375 319.542969 L 546.335938 495.355469 Z M 638.664062 340.839844 "/></clipPath><clipPath id="c3fe515c0b"><path d="M 1060.6875 330.101562 L 1086.1875 330.101562 L 1086.1875 355.601562 L 1060.6875 355.601562 Z M 1060.6875 330.101562 "/></clipPath></defs><g id="ad5462b1e6"><g style="fill:#004aad;fill-opacity:1;"><g transform="translate(575.940985, 490.080839)"><path style="stroke:none" d="M 44.734375 -102.265625 L 31.953125 -102.265625 L 31.953125 -156.59375 C 31.953125 -157.394531 31.921875 -158.257812 31.859375 -159.1875 C 31.796875 -160.125 31.5625 -160.972656 31.15625 -161.734375 C 30.757812 -162.503906 30.128906 -163.15625 29.265625 -163.6875 C 28.398438 -164.21875 27.164062 -164.484375 25.5625 -164.484375 C 23.96875 -164.484375 22.738281 -164.21875 21.875 -163.6875 C 21.007812 -163.15625 20.375 -162.503906 19.96875 -161.734375 C 19.570312 -160.972656 19.335938 -160.125 19.265625 -159.1875 C 19.203125 -158.257812 19.171875 -157.394531 19.171875 -156.59375 L 19.171875 -15.984375 C 19.171875 -15.179688 19.203125 -14.226562 19.265625 -13.125 C 19.335938 -12.03125 19.570312 -10.984375 19.96875 -9.984375 C 20.375 -8.984375 21.007812 -8.132812 21.875 -7.4375 C 22.738281 -6.738281 23.96875 -6.390625 25.5625 -6.390625 C 27.164062 -6.390625 28.398438 -6.738281 29.265625 -7.4375 C 30.128906 -8.132812 30.757812 -8.984375 31.15625 -9.984375 C 31.5625 -10.984375 31.796875 -12.03125 31.859375 -13.125 C 31.921875 -14.226562 31.953125 -15.179688 31.953125 -15.984375 L 31.953125 -79.890625 L 28.765625 -79.890625 L 28.765625 -89.484375 L 44.734375 -89.484375 L 44.734375 -15.984375 C 44.734375 -15.179688 44.632812 -13.726562 44.4375 -11.625 C 44.238281 -9.53125 43.539062 -7.382812 42.34375 -5.1875 C 41.144531 -2.988281 39.242188 -1.039062 36.640625 0.65625 C 34.046875 2.351562 30.351562 3.203125 25.5625 3.203125 C 20.769531 3.203125 17.078125 2.351562 14.484375 0.65625 C 11.890625 -1.039062 9.988281 -2.988281 8.78125 -5.1875 C 7.582031 -7.382812 6.882812 -9.53125 6.6875 -11.625 C 6.488281 -13.726562 6.390625 -15.179688 6.390625 -15.984375 L 6.390625 -156.59375 C 6.390625 -157.125 6.421875 -157.921875 6.484375 -158.984375 C 6.554688 -160.054688 6.757812 -161.238281 7.09375 -162.53125 C 7.425781 -163.832031 7.988281 -165.164062 8.78125 -166.53125 C 9.582031 -167.894531 10.679688 -169.140625 12.078125 -170.265625 C 13.484375 -171.398438 15.28125 -172.316406 17.46875 -173.015625 C 19.664062 -173.722656 22.363281 -174.078125 25.5625 -174.078125 C 28.757812 -174.078125 31.457031 -173.722656 33.65625 -173.015625 C 35.851562 -172.316406 37.648438 -171.398438 39.046875 -170.265625 C 40.441406 -169.140625 41.539062 -167.894531 42.34375 -166.53125 C 43.144531 -165.164062 43.710938 -163.832031 44.046875 -162.53125 C 44.378906 -161.238281 44.578125 -160.054688 44.640625 -158.984375 C 44.703125 -157.921875 44.734375 -157.125 44.734375 -156.59375 Z M 44.734375 -102.265625 "/></g><g transform="translate(627.072057, 490.080839)"><path style="stroke:none" d="M 41.546875 -89.484375 C 41.546875 -86.285156 40.742188 -83.820312 39.140625 -82.09375 C 37.546875 -80.363281 35.148438 -79.128906 31.953125 -78.390625 C 35.148438 -77.523438 37.546875 -76.226562 39.140625 -74.5 C 40.742188 -72.769531 41.546875 -70.304688 41.546875 -67.109375 L 41.546875 0 L 28.765625 0 L 28.765625 -67.109375 C 28.765625 -68.710938 28.5625 -69.945312 28.15625 -70.8125 C 27.757812 -71.675781 27.160156 -72.304688 26.359375 -72.703125 C 25.566406 -73.097656 24.570312 -73.328125 23.375 -73.390625 C 22.175781 -73.460938 20.773438 -73.5 19.171875 -73.5 L 19.171875 0 L 6.390625 0 L 6.390625 -153.40625 L 20.765625 -153.40625 C 25.097656 -153.40625 28.8125 -153.050781 31.90625 -152.34375 C 35 -151.644531 37.378906 -150.414062 39.046875 -148.65625 C 40.710938 -146.894531 41.546875 -144.210938 41.546875 -140.609375 Z M 28.765625 -137.421875 C 28.765625 -139.015625 28.5625 -140.242188 28.15625 -141.109375 C 27.757812 -141.972656 27.160156 -142.601562 26.359375 -143 C 25.566406 -143.40625 24.570312 -143.640625 23.375 -143.703125 C 22.175781 -143.773438 20.773438 -143.8125 19.171875 -143.8125 L 19.171875 -83.09375 C 20.773438 -83.09375 22.175781 -83.125 23.375 -83.1875 C 24.570312 -83.257812 25.566406 -83.492188 26.359375 -83.890625 C 27.160156 -84.285156 27.757812 -84.914062 28.15625 -85.78125 C 28.5625 -86.644531 28.765625 -87.878906 28.765625 -89.484375 Z M 28.765625 -137.421875 "/></g><g transform="translate(675.007436, 490.080839)"><path style="stroke:none" d="M 28.765625 -153.40625 L 41.546875 -153.40625 L 41.546875 -14.375 C 41.546875 -11.582031 41.046875 -9.171875 40.046875 -7.140625 C 39.046875 -5.109375 37.710938 -3.441406 36.046875 -2.140625 C 34.390625 -0.847656 32.507812 0.09375 30.40625 0.6875 C 28.3125 1.289062 26.164062 1.59375 23.96875 1.59375 C 21.769531 1.59375 19.617188 1.289062 17.515625 0.6875 C 15.421875 0.09375 13.539062 -0.847656 11.875 -2.140625 C 10.21875 -3.441406 8.890625 -5.109375 7.890625 -7.140625 C 6.890625 -9.171875 6.390625 -11.582031 6.390625 -14.375 L 6.390625 -153.40625 L 19.171875 -153.40625 L 19.171875 -14.375 C 19.171875 -11.976562 19.671875 -10.3125 20.671875 -9.375 C 21.671875 -8.445312 22.769531 -7.984375 23.96875 -7.984375 C 25.164062 -7.984375 26.265625 -8.445312 27.265625 -9.375 C 28.265625 -10.3125 28.765625 -11.976562 28.765625 -14.375 Z M 28.765625 -153.40625 "/></g><g transform="translate(722.942816, 490.080839)"><path style="stroke:none" d="M 44.734375 -86.28125 C 44.734375 -82.289062 44 -79.210938 42.53125 -77.046875 C 41.070312 -74.878906 39.144531 -73.296875 36.75 -72.296875 C 34.351562 -71.304688 31.625 -70.726562 28.5625 -70.5625 C 25.5 -70.394531 22.367188 -70.3125 19.171875 -70.3125 L 19.171875 0 L 6.390625 0 L 6.390625 -153.40625 L 22.375 -153.40625 C 28.03125 -153.40625 32.375 -152.867188 35.40625 -151.796875 C 38.4375 -150.734375 40.648438 -149.398438 42.046875 -147.796875 C 43.441406 -146.203125 44.238281 -144.472656 44.4375 -142.609375 C 44.632812 -140.742188 44.734375 -139.015625 44.734375 -137.421875 Z M 31.953125 -137.421875 C 31.953125 -139.015625 31.734375 -140.242188 31.296875 -141.109375 C 30.867188 -141.972656 30.15625 -142.601562 29.15625 -143 C 28.15625 -143.40625 26.835938 -143.640625 25.203125 -143.703125 C 23.578125 -143.773438 21.566406 -143.8125 19.171875 -143.8125 L 19.171875 -79.890625 C 20.773438 -79.890625 22.34375 -79.9375 23.875 -80.03125 C 25.40625 -80.132812 26.769531 -80.488281 27.96875 -81.09375 C 29.164062 -81.695312 30.128906 -82.644531 30.859375 -83.9375 C 31.585938 -85.238281 31.953125 -87.085938 31.953125 -89.484375 Z M 31.953125 -137.421875 "/></g><g transform="translate(770.878196, 490.080839)"><path style="stroke:none" d="M 44.734375 -14.375 C 44.734375 -11.582031 44.21875 -9.171875 43.1875 -7.140625 C 42.15625 -5.109375 40.773438 -3.425781 39.046875 -2.09375 C 37.316406 -0.757812 35.351562 0.21875 33.15625 0.84375 C 30.957031 1.476562 28.691406 1.796875 26.359375 1.796875 C 23.898438 1.796875 21.472656 1.445312 19.078125 0.75 C 16.679688 0.0507812 14.550781 -0.976562 12.6875 -2.34375 C 10.820312 -3.707031 9.304688 -5.40625 8.140625 -7.4375 C 6.972656 -9.46875 6.390625 -11.78125 6.390625 -14.375 L 6.390625 -139.015625 C 6.390625 -141.546875 6.972656 -143.789062 8.140625 -145.75 C 9.304688 -147.71875 10.835938 -149.367188 12.734375 -150.703125 C 14.628906 -152.035156 16.773438 -153.050781 19.171875 -153.75 C 21.566406 -154.445312 24 -154.796875 26.46875 -154.796875 C 28.789062 -154.796875 31.050781 -154.476562 33.25 -153.84375 C 35.445312 -153.21875 37.394531 -152.253906 39.09375 -150.953125 C 40.789062 -149.648438 42.15625 -148 43.1875 -146 C 44.21875 -144.007812 44.734375 -141.679688 44.734375 -139.015625 Z M 31.953125 -139.015625 C 31.953125 -141.273438 31.398438 -142.890625 30.296875 -143.859375 C 29.203125 -144.828125 27.925781 -145.3125 26.46875 -145.3125 C 25.601562 -145.3125 24.738281 -145.160156 23.875 -144.859375 C 23.007812 -144.554688 22.222656 -144.125 21.515625 -143.5625 C 20.816406 -143 20.25 -142.332031 19.8125 -141.5625 C 19.382812 -140.800781 19.171875 -139.953125 19.171875 -139.015625 L 19.171875 -14.375 C 19.171875 -13.445312 19.382812 -12.582031 19.8125 -11.78125 C 20.25 -10.988281 20.816406 -10.320312 21.515625 -9.78125 C 22.222656 -9.25 22.988281 -8.832031 23.8125 -8.53125 C 24.644531 -8.238281 25.492188 -8.09375 26.359375 -8.09375 C 27.828125 -8.09375 29.125 -8.570312 30.25 -9.53125 C 31.382812 -10.5 31.953125 -12.113281 31.953125 -14.375 Z M 31.953125 -139.015625 "/></g><g transform="translate(822.009267, 490.080839)"><path style="stroke:none" d=""/></g><g transform="translate(845.677361, 490.080839)"><path style="stroke:none" d="M 19.171875 -92.671875 L 31.953125 -92.671875 L 31.953125 -172.578125 L 44.734375 -172.578125 L 44.734375 0 L 31.953125 0 L 31.953125 -83.09375 L 19.171875 -83.09375 L 19.171875 0 L 6.390625 0 L 6.390625 -172.578125 L 19.171875 -172.578125 Z M 19.171875 -92.671875 "/></g><g transform="translate(896.808433, 490.080839)"><path style="stroke:none" d="M 31.953125 -143.8125 L 19.171875 -143.8125 L 19.171875 -86.28125 L 31.953125 -86.28125 L 31.953125 -76.703125 L 19.171875 -76.703125 L 19.171875 -9.59375 L 31.953125 -9.59375 L 31.953125 0 L 6.390625 0 L 6.390625 -153.40625 L 31.953125 -153.40625 Z M 31.953125 -143.8125 "/></g><g transform="translate(931.961044, 490.080839)"><path style="stroke:none" d="M 44.734375 0 L 35.15625 0 L 17.578125 -89.484375 L 17.578125 0 L 6.390625 0 L 6.390625 -153.40625 L 15.984375 -153.40625 L 33.65625 -60.71875 L 33.65625 -153.40625 L 44.734375 -153.40625 Z M 44.734375 0 "/></g><g transform="translate(983.092116, 490.080839)"><path style="stroke:none" d="M 41.546875 -89.484375 C 41.546875 -86.285156 40.742188 -83.820312 39.140625 -82.09375 C 37.546875 -80.363281 35.148438 -79.128906 31.953125 -78.390625 C 35.148438 -77.523438 37.546875 -76.226562 39.140625 -74.5 C 40.742188 -72.769531 41.546875 -70.304688 41.546875 -67.109375 L 41.546875 0 L 28.765625 0 L 28.765625 -67.109375 C 28.765625 -68.710938 28.5625 -69.945312 28.15625 -70.8125 C 27.757812 -71.675781 27.160156 -72.304688 26.359375 -72.703125 C 25.566406 -73.097656 24.570312 -73.328125 23.375 -73.390625 C 22.175781 -73.460938 20.773438 -73.5 19.171875 -73.5 L 19.171875 0 L 6.390625 0 L 6.390625 -153.40625 L 20.765625 -153.40625 C 25.097656 -153.40625 28.8125 -153.050781 31.90625 -152.34375 C 35 -151.644531 37.378906 -150.414062 39.046875 -148.65625 C 40.710938 -146.894531 41.546875 -144.210938 41.546875 -140.609375 Z M 28.765625 -137.421875 C 28.765625 -139.015625 28.5625 -140.242188 28.15625 -141.109375 C 27.757812 -141.972656 27.160156 -142.601562 26.359375 -143 C 25.566406 -143.40625 24.570312 -143.640625 23.375 -143.703125 C 22.175781 -143.773438 20.773438 -143.8125 19.171875 -143.8125 L 19.171875 -83.09375 C 20.773438 -83.09375 22.175781 -83.125 23.375 -83.1875 C 24.570312 -83.257812 25.566406 -83.492188 26.359375 -83.890625 C 27.160156 -84.285156 27.757812 -84.914062 28.15625 -85.78125 C 28.5625 -86.644531 28.765625 -87.878906 28.765625 -89.484375 Z M 28.765625 -137.421875 "/></g><g transform="translate(1031.027496, 490.080839)"><path style="stroke:none" d="M 20.765625 -153.40625 L 20.765625 0 L 7.984375 0 L 7.984375 -153.40625 Z M 20.765625 -153.40625 "/></g></g><g style="fill:#004aad;fill-opacity:1;"><g transform="translate(1059.788734, 490.080839)"><path style="stroke:none" d=""/></g></g><g clip-rule="nonzero" clip-path="url(#58aa525614)"><g clip-rule="nonzero" clip-path="url(#35b3febe14)"><g clip-rule="nonzero" clip-path="url(#9985390f8d)"><path style=" stroke:none;fill-rule:nonzero;fill:#fe7200;fill-opacity:1;" d="M 557.992188 475.847656 C 557.992188 475.847656 557.992188 475.847656 557.988281 475.832031 L 557.992188 475.820312 C 557.929688 475.296875 551.214844 448.976562 534.316406 441.921875 C 527.765625 439.183594 520.75 437.710938 513.65625 437.449219 L 463.875 435.625 C 444.273438 434.117188 426.761719 422.800781 417.320312 405.5625 C 416.289062 403.679688 417.824219 401.425781 419.953125 401.699219 L 518.1875 414.359375 C 518.207031 414.355469 518.207031 414.355469 518.210938 414.347656 C 518.21875 414.335938 518.222656 414.324219 518.214844 414.320312 C 515.53125 410.660156 429.960938 384.285156 427.472656 383.519531 C 427.433594 383.507812 427.398438 383.496094 427.359375 383.480469 C 424.003906 382.320312 420.8125 380.832031 417.851562 379.0625 C 405.171875 371.488281 396.320312 358.6875 393.804688 343.945312 C 393.46875 341.953125 395.375 340.316406 397.277344 341 L 522.804688 386.273438 C 522.863281 386.292969 522.917969 386.296875 522.964844 386.269531 C 523.015625 386.253906 523.050781 386.21875 523.074219 386.179688 C 523.121094 386.105469 523.121094 386.007812 523.039062 385.929688 C 513.574219 377.167969 407.359375 320.574219 404.4375 319.015625 C 404.390625 318.992188 404.351562 318.96875 404.308594 318.945312 C 386.894531 308.511719 374.832031 291.230469 371.484375 271.875 L 370.484375 266.117188 C 370.101562 263.902344 372.5 262.265625 374.421875 263.425781 L 534.878906 360.269531 C 534.953125 360.3125 535.015625 360.304688 535.074219 360.300781 C 535.132812 360.277344 535.183594 360.238281 535.207031 360.195312 C 535.269531 360.089844 535.265625 359.960938 535.144531 359.875 L 388.128906 248.105469 C 371.375 234.6875 358.859375 216.691406 352.132812 196.304688 L 343.578125 170.382812 C 342.746094 167.859375 345.769531 165.839844 347.78125 167.578125 L 545.867188 338.707031 C 548.195312 340.722656 561.699219 352.910156 563.390625 355.484375 C 568.339844 363.023438 574.5 377.929688 570.3125 396.929688 C 564.632812 422.707031 558.085938 474.527344 557.992188 475.820312 L 557.992188 475.847656 "/></g></g></g><g clip-rule="nonzero" clip-path="url(#c3fe515c0b)"><path style="fill:none;stroke-width:8;stroke-linecap:butt;stroke-linejoin:miter;stroke:#000000;stroke-opacity:1;stroke-miterlimit:10;" d="M 503.165322 253.502464 C 503.165322 269.896338 501.6114 286.13482 498.425861 302.140213 C 495.162625 318.223303 490.50086 333.840216 484.207477 348.990953 C 477.914094 364.141689 470.222182 378.515465 461.13174 392.11228 C 452.041298 405.709095 441.707719 418.373557 430.053306 429.950274 C 418.476589 441.526991 405.889823 451.86057 392.293008 460.951012 C 378.618497 470.041454 364.244721 477.733366 349.093985 484.026749 C 333.943248 490.242436 318.326335 494.981897 302.320941 498.167437 C 286.237852 501.430673 269.99937 502.984594 253.605496 502.984594 C 237.211622 502.984594 220.97314 501.430673 204.89005 498.167437 C 188.80696 494.981897 173.190047 490.242436 158.117007 484.026749 C 142.96627 477.733366 128.592494 470.041454 114.917983 460.951012 C 101.321168 451.86057 88.656706 441.526991 77.079989 429.950274 C 65.503273 418.373557 55.169693 405.709095 46.079251 392.11228 C 36.988809 378.515465 29.296897 364.141689 23.003514 348.990953 C 16.710131 333.840216 11.97067 318.223303 8.78513 302.140213 C 5.599591 286.13482 3.967973 269.896338 3.967973 253.502464 C 3.967973 237.10859 5.599591 220.870108 8.78513 204.787018 C 11.97067 188.781625 16.710131 173.164711 23.003514 158.013975 C 29.296897 142.863238 36.988809 128.489462 46.079251 114.892647 C 55.169693 101.295832 65.503273 88.63137 77.079989 77.054654 C 88.656706 65.477937 101.321168 55.144357 114.917983 46.053915 C 128.592494 36.963473 142.96627 29.271561 158.117007 22.978178 C 173.190047 16.684795 188.80696 12.02303 204.89005 8.759794 C 220.97314 5.574255 237.211622 4.020333 253.605496 4.020333 C 269.99937 4.020333 286.237852 5.574255 302.320941 8.759794 C 318.326335 12.02303 333.943248 16.684795 349.093985 22.978178 C 364.244721 29.271561 378.618497 36.963473 392.293008 46.053915 C 405.889823 55.144357 418.476589 65.477937 430.053306 77.054654 C 441.707719 88.63137 452.041298 101.295832 461.13174 114.892647 C 470.222182 128.489462 477.914094 142.863238 484.207477 158.013975 C 490.50086 173.164711 495.162625 188.781625 498.425861 204.787018 C 501.6114 220.870108 503.165322 237.10859 503.165322 253.502464 Z M 503.165322 253.502464 " transform="matrix(0.050276,0,0,0.050276,1060.687225,330.106467)"/></g><g style="fill:#fe7200;fill-opacity:1;"><g transform="translate(589.379977, 543.752016)"><path style="stroke:none" d="M 15.515625 -35.796875 C 17.410156 -35.796875 19.265625 -35.515625 21.078125 -34.953125 C 22.898438 -34.398438 24.253906 -33.859375 25.140625 -33.328125 L 26.421875 -32.46875 L 23.171875 -26.078125 C 22.921875 -26.242188 22.566406 -26.460938 22.109375 -26.734375 C 21.660156 -27.003906 20.8125 -27.363281 19.5625 -27.8125 C 18.3125 -28.269531 17.144531 -28.5 16.0625 -28.5 C 14.726562 -28.5 13.695312 -28.210938 12.96875 -27.640625 C 12.25 -27.078125 11.890625 -26.316406 11.890625 -25.359375 C 11.890625 -24.867188 12.054688 -24.414062 12.390625 -24 C 12.734375 -23.59375 13.316406 -23.15625 14.140625 -22.6875 C 14.960938 -22.21875 15.6875 -21.84375 16.3125 -21.5625 C 16.9375 -21.28125 17.90625 -20.851562 19.21875 -20.28125 C 21.488281 -19.3125 23.425781 -17.992188 25.03125 -16.328125 C 26.632812 -14.671875 27.4375 -12.789062 27.4375 -10.6875 C 27.4375 -8.675781 27.070312 -6.914062 26.34375 -5.40625 C 25.625 -3.90625 24.628906 -2.726562 23.359375 -1.875 C 22.097656 -1.019531 20.703125 -0.390625 19.171875 0.015625 C 17.640625 0.429688 15.976562 0.640625 14.1875 0.640625 C 12.65625 0.640625 11.148438 0.484375 9.671875 0.171875 C 8.191406 -0.140625 6.953125 -0.53125 5.953125 -1 C 4.960938 -1.46875 4.070312 -1.925781 3.28125 -2.375 C 2.488281 -2.832031 1.90625 -3.21875 1.53125 -3.53125 L 0.984375 -4 L 4.984375 -10.734375 C 5.328125 -10.453125 5.796875 -10.085938 6.390625 -9.640625 C 6.984375 -9.203125 8.039062 -8.613281 9.5625 -7.875 C 11.082031 -7.144531 12.425781 -6.78125 13.59375 -6.78125 C 16.96875 -6.78125 18.65625 -7.925781 18.65625 -10.21875 C 18.65625 -10.707031 18.535156 -11.15625 18.296875 -11.5625 C 18.054688 -11.976562 17.628906 -12.390625 17.015625 -12.796875 C 16.410156 -13.210938 15.875 -13.539062 15.40625 -13.78125 C 14.9375 -14.019531 14.164062 -14.390625 13.09375 -14.890625 C 12.03125 -15.390625 11.242188 -15.765625 10.734375 -16.015625 C 8.609375 -17.066406 6.960938 -18.378906 5.796875 -19.953125 C 4.628906 -21.535156 4.046875 -23.234375 4.046875 -25.046875 C 4.046875 -28.203125 5.207031 -30.78125 7.53125 -32.78125 C 9.863281 -34.789062 12.523438 -35.796875 15.515625 -35.796875 Z M 15.515625 -35.796875 "/></g></g><g style="fill:#fe7200;fill-opacity:1;"><g transform="translate(652.10073, 543.752016)"><path style="stroke:none" d="M 10.5625 -35.15625 L 10.5625 0 L 2.5625 0 L 2.5625 -35.15625 Z M 10.5625 -35.15625 "/></g></g><g style="fill:#fe7200;fill-opacity:1;"><g transform="translate(699.311727, 543.752016)"><path style="stroke:none" d="M 15.515625 -35.796875 C 17.410156 -35.796875 19.265625 -35.515625 21.078125 -34.953125 C 22.898438 -34.398438 24.253906 -33.859375 25.140625 -33.328125 L 26.421875 -32.46875 L 23.171875 -26.078125 C 22.921875 -26.242188 22.566406 -26.460938 22.109375 -26.734375 C 21.660156 -27.003906 20.8125 -27.363281 19.5625 -27.8125 C 18.3125 -28.269531 17.144531 -28.5 16.0625 -28.5 C 14.726562 -28.5 13.695312 -28.210938 12.96875 -27.640625 C 12.25 -27.078125 11.890625 -26.316406 11.890625 -25.359375 C 11.890625 -24.867188 12.054688 -24.414062 12.390625 -24 C 12.734375 -23.59375 13.316406 -23.15625 14.140625 -22.6875 C 14.960938 -22.21875 15.6875 -21.84375 16.3125 -21.5625 C 16.9375 -21.28125 17.90625 -20.851562 19.21875 -20.28125 C 21.488281 -19.3125 23.425781 -17.992188 25.03125 -16.328125 C 26.632812 -14.671875 27.4375 -12.789062 27.4375 -10.6875 C 27.4375 -8.675781 27.070312 -6.914062 26.34375 -5.40625 C 25.625 -3.90625 24.628906 -2.726562 23.359375 -1.875 C 22.097656 -1.019531 20.703125 -0.390625 19.171875 0.015625 C 17.640625 0.429688 15.976562 0.640625 14.1875 0.640625 C 12.65625 0.640625 11.148438 0.484375 9.671875 0.171875 C 8.191406 -0.140625 6.953125 -0.53125 5.953125 -1 C 4.960938 -1.46875 4.070312 -1.925781 3.28125 -2.375 C 2.488281 -2.832031 1.90625 -3.21875 1.53125 -3.53125 L 0.984375 -4 L 4.984375 -10.734375 C 5.328125 -10.453125 5.796875 -10.085938 6.390625 -9.640625 C 6.984375 -9.203125 8.039062 -8.613281 9.5625 -7.875 C 11.082031 -7.144531 12.425781 -6.78125 13.59375 -6.78125 C 16.96875 -6.78125 18.65625 -7.925781 18.65625 -10.21875 C 18.65625 -10.707031 18.535156 -11.15625 18.296875 -11.5625 C 18.054688 -11.976562 17.628906 -12.390625 17.015625 -12.796875 C 16.410156 -13.210938 15.875 -13.539062 15.40625 -13.78125 C 14.9375 -14.019531 14.164062 -14.390625 13.09375 -14.890625 C 12.03125 -15.390625 11.242188 -15.765625 10.734375 -16.015625 C 8.609375 -17.066406 6.960938 -18.378906 5.796875 -19.953125 C 4.628906 -21.535156 4.046875 -23.234375 4.046875 -25.046875 C 4.046875 -28.203125 5.207031 -30.78125 7.53125 -32.78125 C 9.863281 -34.789062 12.523438 -35.796875 15.515625 -35.796875 Z M 15.515625 -35.796875 "/></g></g><g style="fill:#fe7200;fill-opacity:1;"><g transform="translate(762.032481, 543.752016)"><path style="stroke:none" d="M 0.34375 -28.125 L 0.34375 -35.15625 L 25.046875 -35.15625 L 25.046875 -28.125 L 16.703125 -28.125 L 16.703125 0 L 8.6875 0 L 8.6875 -28.125 Z M 0.34375 -28.125 "/></g></g><g style="fill:#fe7200;fill-opacity:1;"><g transform="translate(821.514924, 543.752016)"><path style="stroke:none" d="M 22.671875 -35.15625 L 22.671875 -28.125 L 10.5625 -28.125 L 10.5625 -21.140625 L 22.15625 -21.140625 L 22.15625 -14.109375 L 10.5625 -14.109375 L 10.5625 -7.03125 L 22.671875 -7.03125 L 22.671875 0 L 2.5625 0 L 2.5625 -35.15625 Z M 22.671875 -35.15625 "/></g></g><g style="fill:#fe7200;fill-opacity:1;"><g transform="translate(880.315638, 543.752016)"><path style="stroke:none" d="M 31.609375 0 L 29.953125 -20.84375 L 29.734375 -20.84375 L 22.546875 -0.21875 L 17.765625 -0.21875 L 10.5625 -20.84375 L 10.359375 -20.84375 L 8.6875 0 L 0.6875 0 L 3.828125 -35.15625 L 12.359375 -35.15625 L 20.15625 -14.875 L 27.953125 -35.15625 L 36.46875 -35.15625 L 39.625 0 Z M 31.609375 0 "/></g></g><g style="fill:#fe7200;fill-opacity:1;"><g transform="translate(954.711311, 543.752016)"><path style="stroke:none" d="M 20.40625 -35.15625 L 34.59375 0 L 25.984375 0 L 23.390625 -7.03125 L 10.015625 -7.03125 L 7.40625 0 L -1.1875 0 L 13 -35.15625 Z M 20.671875 -14.0625 L 16.75 -24.28125 L 16.65625 -24.28125 L 12.734375 -14.0625 Z M 20.671875 -14.0625 "/></g></g><g style="fill:#fe7200;fill-opacity:1;"><g transform="translate(1022.20431, 543.752016)"><path style="stroke:none" d="M 15.515625 -35.796875 C 17.410156 -35.796875 19.265625 -35.515625 21.078125 -34.953125 C 22.898438 -34.398438 24.253906 -33.859375 25.140625 -33.328125 L 26.421875 -32.46875 L 23.171875 -26.078125 C 22.921875 -26.242188 22.566406 -26.460938 22.109375 -26.734375 C 21.660156 -27.003906 20.8125 -27.363281 19.5625 -27.8125 C 18.3125 -28.269531 17.144531 -28.5 16.0625 -28.5 C 14.726562 -28.5 13.695312 -28.210938 12.96875 -27.640625 C 12.25 -27.078125 11.890625 -26.316406 11.890625 -25.359375 C 11.890625 -24.867188 12.054688 -24.414062 12.390625 -24 C 12.734375 -23.59375 13.316406 -23.15625 14.140625 -22.6875 C 14.960938 -22.21875 15.6875 -21.84375 16.3125 -21.5625 C 16.9375 -21.28125 17.90625 -20.851562 19.21875 -20.28125 C 21.488281 -19.3125 23.425781 -17.992188 25.03125 -16.328125 C 26.632812 -14.671875 27.4375 -12.789062 27.4375 -10.6875 C 27.4375 -8.675781 27.070312 -6.914062 26.34375 -5.40625 C 25.625 -3.90625 24.628906 -2.726562 23.359375 -1.875 C 22.097656 -1.019531 20.703125 -0.390625 19.171875 0.015625 C 17.640625 0.429688 15.976562 0.640625 14.1875 0.640625 C 12.65625 0.640625 11.148438 0.484375 9.671875 0.171875 C 8.191406 -0.140625 6.953125 -0.53125 5.953125 -1 C 4.960938 -1.46875 4.070312 -1.925781 3.28125 -2.375 C 2.488281 -2.832031 1.90625 -3.21875 1.53125 -3.53125 L 0.984375 -4 L 4.984375 -10.734375 C 5.328125 -10.453125 5.796875 -10.085938 6.390625 -9.640625 C 6.984375 -9.203125 8.039062 -8.613281 9.5625 -7.875 C 11.082031 -7.144531 12.425781 -6.78125 13.59375 -6.78125 C 16.96875 -6.78125 18.65625 -7.925781 18.65625 -10.21875 C 18.65625 -10.707031 18.535156 -11.15625 18.296875 -11.5625 C 18.054688 -11.976562 17.628906 -12.390625 17.015625 -12.796875 C 16.410156 -13.210938 15.875 -13.539062 15.40625 -13.78125 C 14.9375 -14.019531 14.164062 -14.390625 13.09375 -14.890625 C 12.03125 -15.390625 11.242188 -15.765625 10.734375 -16.015625 C 8.609375 -17.066406 6.960938 -18.378906 5.796875 -19.953125 C 4.628906 -21.535156 4.046875 -23.234375 4.046875 -25.046875 C 4.046875 -28.203125 5.207031 -30.78125 7.53125 -32.78125 C 9.863281 -34.789062 12.523438 -35.796875 15.515625 -35.796875 Z M 15.515625 -35.796875 "/></g></g><g style="fill:#000000;fill-opacity:1;"><g transform="translate(1067.726449, 349.194271)"><path style="stroke:none" d="M 3.3125 -5.421875 L 3.3125 0 L 1.796875 0 L 1.796875 -13.03125 L 5.359375 -13.03125 C 6.960938 -13.03125 8.144531 -12.722656 8.90625 -12.109375 C 9.664062 -11.492188 10.046875 -10.570312 10.046875 -9.34375 C 10.046875 -7.625 9.175781 -6.460938 7.4375 -5.859375 L 10.96875 0 L 9.171875 0 L 6.03125 -5.421875 Z M 3.3125 -6.71875 L 5.375 -6.71875 C 6.445312 -6.71875 7.234375 -6.929688 7.734375 -7.359375 C 8.234375 -7.785156 8.484375 -8.421875 8.484375 -9.265625 C 8.484375 -10.128906 8.226562 -10.75 7.71875 -11.125 C 7.207031 -11.507812 6.394531 -11.703125 5.28125 -11.703125 L 3.3125 -11.703125 Z M 3.3125 -6.71875 "/></g></g></g></svg>